
<svg xmlns="http://www.w3.org/2000/svg" viewBox="0 0 608.52 608.52">
  <defs>
    <style>
      .cls-6{fill:#606060}
    </style>
  </defs>
  <g style="isolation:isolate">
    <g id="Layer_1">
      <rect width="608.52" height="608.52" rx="304.26" ry="304.26"/>
      <path d="M304.26 574.51c-72.19 0-140.05-28.11-191.09-79.15S34.02 376.45 34.02 304.27s28.11-140.05 79.15-191.09c51.04-51.04 118.91-79.15 191.09-79.15s140.05 28.11 191.09 79.15c51.04 51.04 79.15 118.91 79.15 191.09s-28.11 140.05-79.15 191.09c-51.04 51.04-118.91 79.15-191.09 79.15Z" style="fill:#ff7300"/>
      <g style="mix-blend-mode:multiply;opacity:.09">
        <path d="M195.82 198.37v58.67l-75.63 46.22 75.63 45.51v58.31L52.56 309.66v-11.73l143.26-99.56ZM227.8 449.39l101.62-299.38h50.97L278.77 449.39H227.8ZM412.71 198.37l143.26 99.56v11.73l-143.26 97.42v-58.31l75.63-45.51-75.63-46.22v-58.67Z" class="cls-6"/>
      </g>
      <text style="fill:#fff;font-family:Mont-Bold,Mont;font-size:104.57px;font-weight:700" transform="matrix(.94 0 0 1 124.02 340.06)"><tspan x="0" y="0">INDEN</tspan><tspan x="325.83" y="0" style="letter-spacing:-.03em">T</tspan></text>
    </g>
  </g>
</svg>